<svg width="360" height="256" viewBox="0 0 360 256" fill="none" xmlns="http://www.w3.org/2000/svg">
<circle cx="34" cy="34" r="34" transform="matrix(-1 0 0 1 39 188)" fill="white" fill-opacity="0.18"/>
<path d="M17.2937 209.715C16.5854 208.991 15.5371 208.723 14.5596 209.006L-8.23461 215.593C-9.26594 215.879 -9.99694 216.696 -10.1939 217.733C-10.395 218.79 -9.69236 220.133 -8.77436 220.694L-1.64711 225.046C-0.91611 225.494 0.0273901 225.382 0.632307 224.775L8.79372 216.614C9.20456 216.188 9.88456 216.188 10.2954 216.614C10.7062 217.023 10.7062 217.691 10.2954 218.116L2.11981 226.277C1.51347 226.883 1.40014 227.824 1.84639 228.556L6.20122 235.711C6.71122 236.559 7.58956 237.042 8.55289 237.042C8.66622 237.042 8.79372 237.042 8.90706 237.027C10.0121 236.886 10.8904 236.134 11.2162 235.072L17.9737 212.449C18.2712 211.486 18.0021 210.437 17.2937 209.715" fill="white"/>
<path opacity="0.4" fill-rule="evenodd" clip-rule="evenodd" d="M-8.79613 229.873C-9.06813 229.873 -9.34013 229.769 -9.54696 229.561C-9.96205 229.146 -9.96205 228.475 -9.54696 228.06L-7.61321 226.124C-7.19813 225.711 -6.52521 225.711 -6.11013 226.124C-5.69646 226.539 -5.69646 227.212 -6.11013 227.627L-8.0453 229.561C-8.25213 229.769 -8.52413 229.873 -8.79613 229.873ZM-3.46845 231.562C-3.74045 231.562 -4.01245 231.459 -4.21928 231.251C-4.63436 230.835 -4.63436 230.164 -4.21928 229.749L-2.28553 227.814C-1.87045 227.4 -1.19753 227.4 -0.782448 227.814C-0.368781 228.229 -0.368781 228.902 -0.782448 229.317L-2.71761 231.251C-2.92445 231.459 -3.19645 231.562 -3.46845 231.562ZM-3.1084 236.617C-2.90157 236.825 -2.62957 236.928 -2.35757 236.928C-2.08557 236.928 -1.81357 236.825 -1.60674 236.617L0.32843 234.683C0.742097 234.268 0.742097 233.595 0.32843 233.18C-0.0866527 232.766 -0.75957 232.766 -1.17465 233.18L-3.1084 235.115C-3.52349 235.53 -3.52349 236.202 -3.1084 236.617Z" fill="white"/>
<g clip-path="url(#clip0_2_844)">
<rect x="306" y="173.109" width="61.4053" height="61.4053" rx="30.7027" transform="rotate(-22.1068 306 173.109)" fill="white" fill-opacity="0.16"/>
<g filter="url(#filter0_f_2_844)">
<circle cx="352.029" cy="215.719" r="8.69909" transform="rotate(-22.1068 352.029 215.719)" fill="white"/>
</g>
<path d="M346.749 180.32L349.778 182.984C350.191 183.354 350.973 183.547 351.522 183.435L354.746 182.705C356.808 182.241 357.826 183.456 357.008 185.418L355.607 188.735C355.375 189.285 355.463 190.147 355.819 190.651L357.679 193.292C359.147 195.375 358.28 196.776 355.762 196.39L352.246 195.858C351.611 195.757 350.758 196.104 350.373 196.619L348.224 199.452C346.684 201.473 345.09 201.084 344.689 198.569L344.18 195.378C344.089 194.78 343.551 194.101 342.996 193.857L339.68 192.457C337.73 191.633 337.612 190.052 339.409 188.935L342.229 187.21C342.705 186.92 343.127 186.224 343.164 185.67L343.478 181.649C343.63 179.474 345.1 178.877 346.749 180.32Z" fill="white"/>
<path opacity="0.4" d="M338.25 184.518L331.139 187.407C330.653 187.604 330.086 187.365 329.889 186.879C329.691 186.393 329.931 185.826 330.417 185.629L337.528 182.74C338.014 182.543 338.581 182.782 338.778 183.268C338.975 183.754 338.736 184.321 338.25 184.518Z" fill="white"/>
<path opacity="0.4" d="M341.435 202.555L337.879 204C337.393 204.197 336.826 203.958 336.629 203.472C336.431 202.986 336.671 202.419 337.157 202.222L340.712 200.778C341.198 200.58 341.765 200.82 341.962 201.305C342.16 201.791 341.92 202.358 341.435 202.555Z" fill="white"/>
<path opacity="0.4" d="M335.694 195.222L334.509 195.703C334.023 195.901 333.456 195.661 333.259 195.175C333.061 194.689 333.301 194.123 333.787 193.925L334.972 193.444C335.458 193.246 336.024 193.486 336.222 193.972C336.419 194.458 336.18 195.024 335.694 195.222Z" fill="white"/>
</g>
<g clip-path="url(#clip1_2_844)">
<rect x="26" y="26.7826" width="40.5343" height="40.5343" rx="20.2671" transform="rotate(-30.845 26 26.7826)" fill="white" fill-opacity="0.16"/>
<g filter="url(#filter1_f_2_844)">
<circle cx="61.3949" cy="43.9499" r="6.89082" transform="rotate(-11.6211 61.3949 43.9499)" fill="white"/>
</g>
<path d="M53.762 25.6617L53.0865 24.5307C52.909 24.2334 52.5153 24.1341 52.218 24.3117C51.9208 24.4892 51.8215 24.8829 51.999 25.1801L52.6485 26.2677L47.9358 29.082L47.2864 27.9945C47.1088 27.6972 46.7151 27.5979 46.4179 27.7754C46.1206 27.9529 46.0213 28.3467 46.1988 28.6439L46.8743 29.7749C45.025 31.1252 44.7723 32.8597 45.6621 34.6791C45.7731 34.898 46.051 34.9681 46.254 34.8469L58.5214 27.521C58.7317 27.3954 58.7974 27.1103 58.6544 26.9203C57.4746 25.274 55.8278 24.674 53.762 25.6617Z" fill="white"/>
<path opacity="0.4" d="M59.9953 29.0997L60.7487 30.3612C61.0128 30.8035 60.8248 31.3781 60.3465 31.5653C60.1261 31.6576 59.9029 31.7614 59.6926 31.8869C57.4958 33.1988 56.7745 36.0591 58.0864 38.2559C58.2855 38.5894 58.6931 38.9755 59.082 39.3137C59.523 39.6897 59.465 40.3833 58.9648 40.6821L55.3977 42.8123C52.8601 44.3277 50.9066 43.5271 49.6077 41.352L46.9406 36.8859C46.7025 36.4871 46.8339 35.9661 47.2327 35.7279L58.833 28.8004C59.2361 28.5695 59.7572 28.7009 59.9953 29.0997Z" fill="white"/>
<path d="M60.3464 32.9817C58.7441 33.9386 58.2214 36.0114 59.1782 37.6137C59.503 38.1575 59.9626 38.5813 60.4907 38.8561C61.4932 39.3984 62.7517 39.414 63.8102 38.7819C64.8687 38.1498 65.4518 37.0344 65.4498 35.8946C65.4583 35.2994 65.3031 34.6937 64.9784 34.1499C64.0215 32.5476 61.9487 32.0249 60.3464 32.9817ZM63.3929 34.6738L62.7016 37.0243C62.6564 37.1792 62.5489 37.3122 62.4184 37.3901C62.2807 37.4724 62.1126 37.5039 61.9389 37.4601L60.7925 37.171C60.4567 37.0863 60.2489 36.7383 60.3336 36.4025C60.4182 36.0667 60.7663 35.8588 61.1021 35.9435L61.6579 36.0837L62.1771 34.3179C62.2734 33.985 62.6301 33.7917 62.963 33.888C63.2959 33.9843 63.4849 34.3337 63.3929 34.6738Z" fill="white"/>
<path d="M52.7337 37.5278C52.5452 37.6404 52.3091 37.6732 52.0934 37.625C51.8806 37.5652 51.6883 37.4243 51.5758 37.2358C51.4632 37.0473 51.4304 36.8112 51.4786 36.5955C51.5458 36.3291 51.7519 36.0978 52.0215 36.0057C52.0693 35.987 52.1214 35.9755 52.1779 35.9713C52.2301 35.9598 52.2866 35.9556 52.3474 35.9586C52.401 35.966 52.4546 35.9733 52.5081 35.9807C52.7209 36.0405 52.9132 36.1814 53.0258 36.3699C53.1384 36.5584 53.1712 36.7945 53.1229 37.0102C53.104 37.0608 53.0851 37.1115 53.0661 37.1621C53.04 37.2171 53.0095 37.2648 52.9746 37.3053C52.9441 37.3531 52.9093 37.3935 52.8701 37.4268C52.8237 37.4643 52.7772 37.5019 52.7337 37.5278Z" fill="white"/>
<path d="M55.2713 36.0125C55.0828 36.1251 54.8466 36.1579 54.6309 36.1097C54.4182 36.0498 54.2259 35.909 54.1133 35.7205C54.0007 35.532 53.9679 35.2958 54.0161 35.0801C54.1314 34.6474 54.6172 34.3573 55.0457 34.4653C55.2584 34.5251 55.4508 34.666 55.5633 34.8545C55.6759 35.043 55.7087 35.2792 55.6605 35.4948C55.6007 35.7076 55.4598 35.8999 55.2713 36.0125Z" fill="white"/>
<path d="M54.2491 40.0655C54.0606 40.178 53.8245 40.2109 53.6088 40.1626C53.396 40.1028 53.2037 39.9619 53.0911 39.7734C52.9786 39.5849 52.9457 39.3488 52.994 39.1331C53.0275 39.0245 53.0697 38.9305 53.1423 38.8379C53.3413 38.5617 53.6993 38.4365 54.0235 38.5183C54.2363 38.5781 54.4286 38.719 54.5412 38.9075C54.6537 39.096 54.6866 39.3321 54.6383 39.5478C54.5785 39.7606 54.4376 39.9529 54.2491 40.0655Z" fill="white"/>
</g>
<g clip-path="url(#clip2_2_844)">
<rect x="289" y="31.0765" width="44.3202" height="44.3202" rx="22.1601" transform="rotate(-44.522 289 31.0765)" fill="white" fill-opacity="0.16"/>
<path opacity="0.4" d="M329.791 33.0495L329.133 33.6969L328.971 33.5323C328.259 32.8082 327.084 32.7984 326.359 33.5106L324.878 34.9673L323.396 33.4597C323.25 33.6413 323.092 33.8098 322.928 33.9716C322.763 34.1335 322.592 34.2887 322.408 34.4309L323.891 35.9384L322.409 37.3951C321.685 38.1073 321.675 39.2825 322.388 40.0066L322.55 40.1712L321.891 40.8186C321.621 41.0841 321.618 41.528 321.883 41.798C322.148 42.0679 322.592 42.0716 322.862 41.8061L330.762 34.037C331.032 33.7715 331.036 33.3276 330.77 33.0577C330.505 32.7878 330.061 32.7841 329.791 33.0495Z" fill="white"/>
<path opacity="0.4" d="M315.839 35.2966C315.243 35.5594 314.595 35.665 313.995 35.6599C312.716 35.584 311.518 35.1692 310.585 34.2212C309.653 33.2732 309.665 31.7977 310.613 30.8654L310.982 30.5028C311.154 31.0201 311.437 31.5056 311.845 31.9204L313.787 33.8953C314.396 34.5141 315.091 34.9835 315.839 35.2966Z" fill="white"/>
<path opacity="0.4" d="M323.383 21.6351C324.315 22.5831 324.71 23.7878 324.765 25.0679C324.76 25.6686 324.643 26.314 324.371 26.9059C324.07 26.1525 323.613 25.4501 323.004 24.8313L321.062 22.8563C320.654 22.4416 320.173 22.1503 319.659 21.9697L320.027 21.6071C320.975 20.6748 322.451 20.6871 323.383 21.6351Z" fill="white"/>
<path d="M315.839 22.8127L311.889 26.6973C310.434 28.1281 310.414 30.4654 311.845 31.9203L313.787 33.8952C316.293 36.443 320.38 36.4771 322.928 33.9715C325.475 31.466 325.51 27.379 323.004 24.8312L321.062 22.8563C319.631 21.4014 317.294 21.3819 315.839 22.8127ZM319.909 27.1625L319.993 28.0642C319.999 28.2014 320.095 28.3915 320.199 28.4838L320.873 29.0901C321.287 29.4592 321.205 29.9417 320.694 30.1594L319.862 30.5116C319.737 30.5693 319.579 30.7247 319.519 30.8482L319.153 31.6744C318.927 32.1818 318.443 32.2561 318.081 31.8352L317.486 31.1512C317.396 31.046 317.207 30.9465 317.07 30.9388L316.17 30.8399C315.615 30.7895 315.397 30.3437 315.682 29.8695L316.152 29.0964C316.225 28.973 316.253 28.7643 316.221 28.6269L316.039 27.7439C315.926 27.1945 316.269 26.8579 316.816 26.98L317.696 27.1766C317.833 27.2104 318.042 27.1861 318.166 27.1153L318.947 26.6582C319.426 26.3815 319.868 26.6071 319.909 27.1625Z" fill="white"/>
<path opacity="0.4" d="M319.909 27.1625L319.993 28.0643C319.999 28.2014 320.095 28.3916 320.199 28.4839L320.873 29.0902C321.287 29.4593 321.205 29.9417 320.694 30.1595L319.862 30.5116C319.737 30.5694 319.579 30.7247 319.519 30.8483L319.153 31.6744C318.927 32.1818 318.443 32.2562 318.081 31.8353L317.486 31.1513C317.396 31.046 317.207 30.9465 317.07 30.9389L316.17 30.8399C315.615 30.7896 315.397 30.3438 315.682 29.8695L316.152 29.0965C316.225 28.973 316.253 28.7643 316.221 28.627L316.039 27.744C315.926 27.1946 316.269 26.8579 316.816 26.98L317.696 27.1767C317.833 27.2105 318.042 27.1861 318.166 27.1154L318.947 26.6583C319.426 26.3815 319.868 26.6072 319.909 27.1625Z" fill="white"/>
<g filter="url(#filter2_f_2_844)">
<circle cx="333.406" cy="42.4917" r="6.2787" transform="rotate(-33.6252 333.406 42.4917)" fill="white" fill-opacity="0.5"/>
</g>
</g>
<defs>
<filter id="filter0_f_2_844" x="317.742" y="181.432" width="68.5739" height="68.5739" filterUnits="userSpaceOnUse" color-interpolation-filters="sRGB">
<feFlood flood-opacity="0" result="BackgroundImageFix"/>
<feBlend mode="normal" in="SourceGraphic" in2="BackgroundImageFix" result="shape"/>
<feGaussianBlur stdDeviation="12.7928" result="effect1_foregroundBlur_2_844"/>
</filter>
<filter id="filter1_f_2_844" x="34.2356" y="16.7905" width="54.3186" height="54.3187" filterUnits="userSpaceOnUse" color-interpolation-filters="sRGB">
<feFlood flood-opacity="0" result="BackgroundImageFix"/>
<feBlend mode="normal" in="SourceGraphic" in2="BackgroundImageFix" result="shape"/>
<feGaussianBlur stdDeviation="10.1336" result="effect1_foregroundBlur_2_844"/>
</filter>
<filter id="filter2_f_2_844" x="308.66" y="17.7456" width="49.4923" height="49.4922" filterUnits="userSpaceOnUse" color-interpolation-filters="sRGB">
<feFlood flood-opacity="0" result="BackgroundImageFix"/>
<feBlend mode="normal" in="SourceGraphic" in2="BackgroundImageFix" result="shape"/>
<feGaussianBlur stdDeviation="9.23338" result="effect1_foregroundBlur_2_844"/>
</filter>
<clipPath id="clip0_2_844">
<rect x="306" y="173.109" width="61.4053" height="61.4053" rx="30.7027" transform="rotate(-22.1068 306 173.109)" fill="white"/>
</clipPath>
<clipPath id="clip1_2_844">
<rect x="26" y="26.7826" width="40.5343" height="40.5343" rx="20.2671" transform="rotate(-30.845 26 26.7826)" fill="white"/>
</clipPath>
<clipPath id="clip2_2_844">
<rect x="289" y="31.0765" width="44.3202" height="44.3202" rx="22.1601" transform="rotate(-44.522 289 31.0765)" fill="white"/>
</clipPath>
</defs>
</svg>
