<svg width="275" height="185" viewBox="0 0 275 185" fill="none" xmlns="http://www.w3.org/2000/svg">
<g opacity="0.4">
<path d="M73.0881 42.4455C74.8961 46.8967 72.7535 51.9708 68.3023 53.7789C63.8511 55.5869 58.777 53.4442 56.9689 48.993C55.1609 44.5419 57.3036 39.4678 61.7548 37.6597C66.2059 35.8517 71.28 37.9943 73.0881 42.4455Z" fill="white"/>
<path d="M59.7488 10.3203L62.7776 12.9838C63.1905 13.3546 63.9731 13.5476 64.5213 13.4354L67.7458 12.7055C69.8078 12.2408 70.8262 13.4564 70.0076 15.4182L68.607 18.7349C68.3748 19.2849 68.4626 20.1468 68.8192 20.6509L70.6791 23.2921C72.1464 25.3748 71.2797 26.7763 68.7619 26.3906L65.2455 25.8582C64.6107 25.7571 63.7574 26.1037 63.3729 26.6189L61.2238 29.4526C59.6833 31.4729 58.0896 31.0847 57.689 28.5687L57.1802 25.3786C57.0892 24.7804 56.551 24.1015 55.9962 23.8574L52.6796 22.4568C50.7296 21.6334 50.6118 20.0519 52.409 18.9353L55.2291 17.2098C55.705 16.9198 56.1266 16.2239 56.164 15.6702L56.4775 11.649C56.6298 9.47455 58.0995 8.87756 59.7488 10.3203Z" fill="white"/>
<path d="M51.2498 14.5181L44.1385 17.4067C43.6525 17.6041 43.0858 17.3648 42.8885 16.8789C42.6911 16.3929 42.9304 15.8263 43.4163 15.6289L50.5277 12.7403C51.0136 12.5429 51.5803 12.7822 51.7777 13.2681C51.9751 13.7541 51.7358 14.3207 51.2498 14.5181Z" fill="white"/>
<path d="M54.4343 32.5556L50.8786 34C50.3926 34.1973 49.826 33.9581 49.6286 33.4721C49.4312 32.9862 49.6705 32.4195 50.1564 32.2221L53.7121 30.7778C54.198 30.5804 54.7647 30.8197 54.9621 31.3056C55.1595 31.7916 54.9202 32.3583 54.4343 32.5556Z" fill="white"/>
<path d="M48.6937 25.2219L47.5085 25.7033C47.0226 25.9007 46.4559 25.6614 46.2585 25.1755C46.0611 24.6896 46.3004 24.1229 46.7864 23.9255L47.9716 23.4441C48.4575 23.2467 49.0242 23.486 49.2216 23.9719C49.419 24.4579 49.1797 25.0245 48.6937 25.2219Z" fill="white"/>
<path d="M249.462 88.2014L247.826 87.467L248.01 87.058C248.817 85.2584 248.006 83.1251 246.206 82.3172L242.526 80.6648L244.207 76.9185C243.776 76.7839 243.36 76.6167 242.951 76.4331C242.542 76.2495 242.14 76.0495 241.753 75.8168L240.072 79.5632L236.391 77.9108C234.591 77.1029 232.458 77.9143 231.65 79.7139L231.466 80.1229L229.83 79.3885C229.16 79.0874 228.354 79.3939 228.053 80.0647C227.751 80.7354 228.058 81.5413 228.729 81.8425L248.36 90.6554C249.031 90.9565 249.837 90.6499 250.138 89.9792C250.439 89.3084 250.133 88.5025 249.462 88.2014Z" fill="white"/>
<path d="M235.552 64.5413C234.656 63.6476 234.008 62.5509 233.593 61.4605C232.828 59.0925 232.734 56.6322 233.791 54.2764C234.849 51.9206 237.527 50.9019 239.883 51.9594L240.799 52.3707C239.985 53.0468 239.306 53.9019 238.843 54.9325L236.64 59.8404C235.95 61.3783 235.591 62.9665 235.552 64.5413Z" fill="white"/>
<path d="M265.594 68.5533C264.537 70.9091 262.636 72.4734 260.358 73.4754C259.267 73.8902 258.017 74.1349 256.754 74.0592C257.905 72.9838 258.853 71.66 259.544 70.1222L261.747 65.2142C262.21 64.1836 262.397 63.1082 262.361 62.0502L263.277 62.4615C265.633 63.519 266.652 66.1975 265.594 68.5533Z" fill="white"/>
<path d="M258.141 55.7327L248.325 51.3263C244.709 49.7033 240.466 51.317 238.843 54.9325L236.64 59.8404C233.798 66.1716 236.62 73.5909 242.951 76.4331C249.282 79.2752 256.701 76.4534 259.544 70.1222L261.747 65.2142C263.37 61.5988 261.756 57.3558 258.141 55.7327ZM253.142 66.1672L251.569 66.9552C251.325 67.0618 251.049 67.3703 250.955 67.623L250.334 69.2703C249.958 70.2813 249.027 70.4726 248.273 69.7015L247.048 68.4442C246.856 68.2596 246.463 68.0833 246.198 68.0623L244.445 67.9829C243.367 67.9316 242.891 67.1086 243.397 66.1564L244.215 64.5972C244.341 64.3592 244.389 63.9479 244.306 63.6945L243.85 61.9958C243.549 60.9568 244.202 60.2473 245.261 60.4279L246.992 60.733C247.266 60.7777 247.664 60.6808 247.89 60.5269L249.359 59.5747C250.274 58.9827 251.124 59.3646 251.29 60.4413L251.555 62.172C251.59 62.4434 251.782 62.8046 251.998 62.9802L253.375 64.0706C254.214 64.7419 254.118 65.7011 253.142 66.1672Z" fill="white"/>
<path d="M253.142 66.1672L251.569 66.9552C251.325 67.0618 251.049 67.3703 250.955 67.623L250.334 69.2703C249.958 70.2813 249.027 70.4726 248.273 69.7015L247.048 68.4442C246.856 68.2596 246.463 68.0833 246.198 68.0623L244.445 67.9829C243.367 67.9316 242.891 67.1086 243.397 66.1564L244.215 64.5972C244.341 64.3592 244.389 63.9479 244.306 63.6945L243.85 61.9958C243.549 60.9568 244.202 60.2473 245.261 60.4279L246.992 60.733C247.266 60.7777 247.664 60.6808 247.89 60.5269L249.359 59.5747C250.274 58.9827 251.124 59.3646 251.29 60.4413L251.555 62.172C251.59 62.4434 251.782 62.8046 251.998 62.9802L253.375 64.0706C254.214 64.7419 254.118 65.7011 253.142 66.1672Z" fill="white"/>
<path d="M244.907 108.411C241.038 113.923 233.432 115.254 227.921 111.384C222.409 107.515 221.078 99.9093 224.948 94.3975C228.817 88.8857 236.423 87.5547 241.934 91.4245C247.446 95.2943 248.777 102.9 244.907 108.411Z" fill="white" fill-opacity="0.5"/>
<path d="M166.144 111.562C166.911 115.29 164.511 118.933 160.783 119.7C157.055 120.466 153.412 118.066 152.645 114.338C151.879 110.61 154.279 106.967 158.007 106.2C161.734 105.434 165.378 107.834 166.144 111.562Z" fill="white"/>
<path d="M151.762 94.6617L151.087 93.5307C150.909 93.2334 150.515 93.1342 150.218 93.3117C149.921 93.4892 149.822 93.8829 149.999 94.1802L150.648 95.2677L145.936 98.082L145.286 96.9945C145.109 96.6972 144.715 96.5979 144.418 96.7754C144.121 96.953 144.021 97.3467 144.199 97.6439L144.874 98.775C143.025 100.125 142.772 101.86 143.662 103.679C143.773 103.898 144.051 103.968 144.254 103.847L156.521 96.521C156.732 96.3954 156.797 96.1103 156.654 95.9203C155.475 94.2741 153.828 93.674 151.762 94.6617Z" fill="white"/>
<path d="M157.995 98.0998L158.749 99.3613C159.013 99.8036 158.825 100.378 158.346 100.565C158.126 100.658 157.903 100.761 157.693 100.887C155.496 102.199 154.774 105.059 156.086 107.256C156.286 107.589 156.693 107.976 157.082 108.314C157.523 108.69 157.465 109.383 156.965 109.682L153.398 111.812C150.86 113.328 148.907 112.527 147.608 110.352L144.941 105.886C144.702 105.487 144.834 104.966 145.233 104.728L156.833 97.8005C157.236 97.5696 157.757 97.701 157.995 98.0998Z" fill="white"/>
<path d="M158.346 101.982C156.744 102.939 156.221 105.011 157.178 106.614C157.503 107.158 157.963 107.581 158.491 107.856C159.493 108.398 160.752 108.414 161.81 107.782C162.869 107.15 163.452 106.034 163.45 104.895C163.458 104.299 163.303 103.694 162.978 103.15C162.022 101.548 159.949 101.025 158.346 101.982ZM161.393 103.674L160.702 106.024C160.656 106.179 160.549 106.312 160.418 106.39C160.281 106.472 160.113 106.504 159.939 106.46L158.793 106.171C158.457 106.086 158.249 105.738 158.334 105.403C158.418 105.067 158.766 104.859 159.102 104.944L159.658 105.084L160.177 103.318C160.273 102.985 160.63 102.792 160.963 102.888C161.296 102.984 161.485 103.334 161.393 103.674Z" fill="white"/>
<path d="M150.734 106.528C150.545 106.641 150.309 106.673 150.093 106.625C149.881 106.565 149.688 106.424 149.576 106.236C149.463 106.047 149.43 105.811 149.479 105.596C149.546 105.329 149.752 105.098 150.021 105.006C150.069 104.987 150.121 104.976 150.178 104.971C150.23 104.96 150.287 104.956 150.347 104.959C150.401 104.966 150.455 104.973 150.508 104.981C150.721 105.041 150.913 105.182 151.026 105.37C151.138 105.559 151.171 105.795 151.123 106.01C151.104 106.061 151.085 106.112 151.066 106.162C151.04 106.217 151.009 106.265 150.975 106.305C150.944 106.353 150.909 106.394 150.87 106.427C150.824 106.464 150.777 106.502 150.734 106.528Z" fill="white"/>
<path d="M153.271 105.013C153.083 105.125 152.847 105.158 152.631 105.11C152.418 105.05 152.226 104.909 152.113 104.721C152.001 104.532 151.968 104.296 152.016 104.08C152.131 103.647 152.617 103.357 153.046 103.465C153.258 103.525 153.451 103.666 153.563 103.855C153.676 104.043 153.709 104.279 153.661 104.495C153.601 104.708 153.46 104.9 153.271 105.013Z" fill="white"/>
<path d="M152.249 109.066C152.061 109.178 151.825 109.211 151.609 109.163C151.396 109.103 151.204 108.962 151.091 108.774C150.979 108.585 150.946 108.349 150.994 108.133C151.028 108.025 151.07 107.931 151.142 107.838C151.341 107.562 151.699 107.437 152.024 107.518C152.236 107.578 152.429 107.719 152.541 107.908C152.654 108.096 152.687 108.332 152.638 108.548C152.579 108.761 152.438 108.953 152.249 109.066Z" fill="white"/>
<path d="M141.3 16.4868C142.306 15.91 142.653 14.6274 142.076 13.6223C141.499 12.6171 140.217 12.2699 139.211 12.8468C138.206 13.4236 137.859 14.7062 138.436 15.7113C139.013 16.7165 140.295 17.0637 141.3 16.4868Z" fill="white"/>
<path d="M141.775 17.3141C140.313 18.1536 138.448 17.6488 137.609 16.1861C137.331 15.703 137.212 15.1732 137.22 14.6498L130.892 18.281C129.066 19.3293 128.43 21.656 129.475 23.4761L132.126 28.0957C133.171 29.9157 135.5 30.5408 137.327 29.4924L138.32 28.9227C138.498 28.8201 138.805 28.8025 139.001 28.8835L140.75 29.6308C141.521 29.9626 142.235 29.5523 142.338 28.7192L142.575 26.8324C142.606 26.5948 142.747 26.3816 142.952 26.2638L143.945 25.6941C145.772 24.6457 146.407 22.319 145.363 20.499L142.886 16.1838C142.629 16.6396 142.258 17.0369 141.775 17.3141Z" fill="white"/>
<path d="M138 23.0001C137.629 23.2128 137.167 23.0821 136.958 22.7181C136.749 22.3541 136.876 21.8854 137.24 21.6765C137.604 21.4676 138.073 21.5945 138.282 21.9585C138.491 22.3225 138.371 22.7874 138 23.0001Z" fill="white"/>
<path d="M140.647 21.4808C140.277 21.6935 139.814 21.5628 139.606 21.1988C139.397 20.8348 139.524 20.366 139.888 20.1571C140.252 19.9482 140.72 20.0751 140.929 20.4391C141.138 20.8031 141.018 21.2681 140.647 21.4808Z" fill="white"/>
<path d="M135.353 24.5195C134.982 24.7322 134.52 24.6015 134.311 24.2375C134.102 23.8735 134.229 23.4047 134.593 23.1958C134.957 22.9869 135.426 23.1138 135.635 23.4778C135.843 23.8418 135.723 24.3068 135.353 24.5195Z" fill="white"/>
<path d="M151.608 30.0638C154.665 31.6377 155.868 35.3924 154.294 38.45C152.72 41.5076 148.965 42.7103 145.908 41.1363C142.85 39.5623 141.647 35.8077 143.221 32.7501C144.795 29.6925 148.55 28.4898 151.608 30.0638Z" fill="white"/>
<path d="M148.222 28.1443C152.254 30.2473 153.817 35.2204 151.714 39.2522C149.611 43.2839 144.638 44.8475 140.606 42.7446C136.575 40.6417 135.011 35.6685 137.114 31.6368C139.217 27.605 144.19 26.0414 148.222 28.1443Z" fill="white" fill-opacity="0.08"/>
<path d="M-27 142C-27 181.212 4.78778 213 44 213C83.2122 213 115 181.212 115 142C115 102.788 83.2122 71 44 71C4.78778 71 -27 102.788 -27 142Z" fill="white" fill-opacity="0.18"/>
<path d="M69.6722 116.345C68.1931 114.834 66.0039 114.275 63.9626 114.866L16.3631 128.62C14.2094 129.217 12.6829 130.924 12.2717 133.09C11.8516 135.297 13.3189 138.101 15.2359 139.273L30.1193 148.361C31.6458 149.295 33.6161 149.062 34.8793 147.796L51.9222 130.753C52.7802 129.862 54.2002 129.862 55.0581 130.753C55.916 131.608 55.916 133.001 55.0581 133.888L37.9855 150.931C36.7194 152.198 36.4827 154.162 37.4146 155.691L46.5085 170.631C47.5735 172.403 49.4077 173.412 51.4193 173.412C51.656 173.412 51.9222 173.412 52.1589 173.379C54.4664 173.086 56.3006 171.515 56.981 169.297L71.0922 122.055C71.7135 120.043 71.1514 117.854 69.6722 116.345Z" fill="white"/>
<path d="M15.1904 158.44C14.6224 158.44 14.0544 158.224 13.6225 157.789C12.7557 156.922 12.7557 155.52 13.6225 154.653L17.6606 150.612C18.5274 149.749 19.9326 149.749 20.7994 150.612C21.6633 151.479 21.6633 152.884 20.7994 153.751L16.7584 157.789C16.3264 158.224 15.7584 158.44 15.1904 158.44Z" fill="white"/>
<path d="M26.3159 161.968C25.7479 161.968 25.1799 161.752 24.748 161.317C23.8812 160.45 23.8812 159.048 24.748 158.181L28.7861 154.14C29.6529 153.276 31.0581 153.276 31.9249 154.14C32.7887 155.007 32.7887 156.412 31.9249 157.279L27.8838 161.317C27.4519 161.752 26.8839 161.968 26.3159 161.968Z" fill="white"/>
<path d="M27.0678 172.523C27.4997 172.958 28.0677 173.174 28.6357 173.174C29.2037 173.174 29.7717 172.958 30.2036 172.523L34.2447 168.485C35.1085 167.618 35.1085 166.213 34.2447 165.346C33.3779 164.482 31.9727 164.482 31.1059 165.346L27.0678 169.387C26.201 170.254 26.201 171.656 27.0678 172.523Z" fill="white"/>
</g>
</svg>
