<svg width="1440" height="760" viewBox="0 0 1440 760" fill="none" xmlns="http://www.w3.org/2000/svg">
<g clip-path="url(#clip0_1_47)">
<rect width="1440" height="760" fill="#F93801"/>
<path d="M211.959 -271C211.959 -163.945 272 -163.945 272 -56.6964C272 50.552 211.959 50.7452 211.959 157.8C211.959 264.855 272 265.049 272 372.104C272 479.159 211.959 479.159 211.959 586.407C211.959 693.656 272 693.656 272 800.904C272 908.153 211.958 907.96 211.958 1015.21C211.958 1122.46 272 1122.26 272 1229.51C272 1336.76 211.958 1336.76 211.958 1444.01" stroke="white" stroke-opacity="0.1" stroke-width="43.6667" stroke-miterlimit="10"/>
<path d="M135.917 -271C135.917 -163.945 195.958 -163.945 195.958 -56.6964C195.958 50.552 135.917 50.7452 135.917 157.8C135.917 264.855 195.958 265.049 195.958 372.104C195.958 479.159 135.917 479.159 135.917 586.407C135.917 693.656 195.958 693.656 195.958 800.904C195.958 908.153 135.917 907.96 135.917 1015.21C135.917 1122.46 195.958 1122.26 195.958 1229.51C195.958 1336.76 135.917 1336.76 135.917 1444.01" stroke="white" stroke-opacity="0.1" stroke-width="43.6667" stroke-miterlimit="10"/>
<path d="M59.8755 -271C59.8755 -163.945 119.917 -163.945 119.917 -56.6964C119.917 50.552 59.8755 50.7452 59.8755 157.8C59.8755 264.855 119.917 265.049 119.917 372.104C119.917 479.159 59.8755 479.159 59.8755 586.407C59.8755 693.656 119.917 693.656 119.917 800.904C119.917 908.153 59.8755 907.96 59.8755 1015.21C59.8755 1122.46 119.917 1122.26 119.917 1229.51C119.917 1336.76 59.8755 1336.76 59.8755 1444.01" stroke="white" stroke-opacity="0.1" stroke-width="43.6667" stroke-miterlimit="10"/>
<path d="M-16.1661 -271C-16.1661 -163.945 43.8754 -163.945 43.8754 -56.6964C43.8754 50.552 -16.1661 50.7452 -16.1661 157.8C-16.1661 264.855 43.8754 265.049 43.8754 372.104C43.8754 479.159 -16.1661 479.159 -16.1661 586.407C-16.1661 693.656 43.8754 693.656 43.8754 800.904C43.8754 908.153 -16.1661 907.96 -16.1661 1015.21C-16.1661 1122.46 43.8754 1122.26 43.8754 1229.51C43.8754 1336.76 -16.1661 1336.76 -16.1661 1444.01" stroke="white" stroke-opacity="0.1" stroke-width="43.6667" stroke-miterlimit="10"/>
</g>
<defs>
<clipPath id="clip0_1_47">
<rect width="1440" height="760" fill="white"/>
</clipPath>
</defs>
</svg>
